<svg width="468" height="228" xmlns="http://www.w3.org/2000/svg">
 <!-- Created with Method Draw - http://github.com/duopixel/Method-Draw/ -->

 <g>
  <title>background</title>
  <rect fill="none" id="canvas_background" height="230" width="470" y="-1" x="-1"/>
 </g>
 <g>
  <title>Layer 1</title>
  <path stroke-width="3" id="svg_4" d="m49.13955,117.78956c0,-44.11365 -6.55498,-22.1575 102.61759,-22.65365c109.17258,-0.49616 106.3203,-22.4523 106.84925,22.65365c0.52896,45.10596 10.19977,25.24218 -103.73341,25.73833c-113.93318,0.49615 -105.73342,18.37532 -105.73342,-25.73833l-0.00001,0z" stroke-opacity="null" stroke-linecap="null" stroke-linejoin="null" fill="#ffffff" transform="rotate(-90 154.0142822265625,118.44293212890624) " stroke="#000"/>
  <path fill="#ffffff" fill-opacity="null" stroke-width="3" stroke-linejoin="null" stroke-linecap="null" stroke-opacity="null" d="m246.5,61.29103c-2,-38.72727 -18.89227,-47.21517 107.5,-37.22735c126.39227,9.98783 108.5,14.2617 107.5,37.22735c-1,22.96566 7.89227,5.1446 -111.5,6.05259c-119.39227,0.90798 -101.5,32.67469 -103.5,-6.05259z" id="svg_2" stroke="#000"/>
  <path stroke-width="3" id="svg_6" d="m13.2526,47.86094c0,-44.11365 -9.14586,-44.1575 143.17771,-44.65365c152.32357,-0.49615 148.34392,-0.4523 149.08194,44.65365c0.73803,45.10595 12.83602,33.24217 -146.12981,33.73833c-158.96583,0.49615 -146.12981,10.37532 -146.12981,-33.73833l-0.00002,0l-0.00001,0z" stroke-opacity="null" stroke-linecap="null" stroke-linejoin="null" fill="#ffffff" stroke="#000"/>
 </g>
</svg>